%TF.GenerationSoftware,KiCad,Pcbnew,7.0.1-0*%
%TF.CreationDate,2023-04-18T13:23:16-05:00*%
%TF.ProjectId,ME 433 PCB,4d452034-3333-4205-9043-422e6b696361,rev?*%
%TF.SameCoordinates,Original*%
%TF.FileFunction,Copper,L1,Top*%
%TF.FilePolarity,Positive*%
%FSLAX46Y46*%
G04 Gerber Fmt 4.6, Leading zero omitted, Abs format (unit mm)*
G04 Created by KiCad (PCBNEW 7.0.1-0) date 2023-04-18 13:23:16*
%MOMM*%
%LPD*%
G01*
G04 APERTURE LIST*
%TA.AperFunction,ComponentPad*%
%ADD10C,1.600000*%
%TD*%
%TA.AperFunction,ComponentPad*%
%ADD11O,1.600000X1.600000*%
%TD*%
%TA.AperFunction,ComponentPad*%
%ADD12R,1.800000X1.800000*%
%TD*%
%TA.AperFunction,ComponentPad*%
%ADD13C,1.800000*%
%TD*%
%TA.AperFunction,ComponentPad*%
%ADD14R,1.700000X1.700000*%
%TD*%
%TA.AperFunction,ComponentPad*%
%ADD15O,1.700000X1.700000*%
%TD*%
%TA.AperFunction,ComponentPad*%
%ADD16R,1.050000X1.500000*%
%TD*%
%TA.AperFunction,ComponentPad*%
%ADD17O,1.050000X1.500000*%
%TD*%
%TA.AperFunction,ComponentPad*%
%ADD18R,1.600000X1.600000*%
%TD*%
%TA.AperFunction,ComponentPad*%
%ADD19R,1.900000X1.900000*%
%TD*%
%TA.AperFunction,ComponentPad*%
%ADD20C,1.900000*%
%TD*%
%TA.AperFunction,ViaPad*%
%ADD21C,0.800000*%
%TD*%
%TA.AperFunction,ViaPad*%
%ADD22C,0.300000*%
%TD*%
%TA.AperFunction,Conductor*%
%ADD23C,0.250000*%
%TD*%
G04 APERTURE END LIST*
D10*
%TO.P,R1,1*%
%TO.N,+3.3V*%
X107882239Y-115591474D03*
D11*
%TO.P,R1,2*%
%TO.N,/MCLR*%
X115502239Y-115591474D03*
%TD*%
D10*
%TO.P,R3,1*%
%TO.N,+3.3V*%
X106680000Y-129540000D03*
D11*
%TO.P,R3,2*%
%TO.N,/USER*%
X114300000Y-129540000D03*
%TD*%
D12*
%TO.P,D3,1,K*%
%TO.N,Net-(D3-K)*%
X142240000Y-132080000D03*
D13*
%TO.P,D3,2,A*%
%TO.N,+3.3V*%
X142240000Y-134620000D03*
%TD*%
D10*
%TO.P,C4,1*%
%TO.N,+3.3V*%
X117520667Y-144820116D03*
%TO.P,C4,2*%
%TO.N,GND*%
X117520667Y-142320116D03*
%TD*%
%TO.P,R4,1*%
%TO.N,Net-(D1-K)*%
X134081755Y-116840000D03*
D11*
%TO.P,R4,2*%
%TO.N,/GREEN*%
X134081755Y-124460000D03*
%TD*%
D14*
%TO.P,J3,1,Pin_1*%
%TO.N,/A0*%
X102067880Y-114288943D03*
D15*
%TO.P,J3,2,Pin_2*%
%TO.N,/A1*%
X102067880Y-116828943D03*
%TO.P,J3,3,Pin_3*%
%TO.N,/B0*%
X102067880Y-119368943D03*
%TO.P,J3,4,Pin_4*%
%TO.N,/B1*%
X102067880Y-121908943D03*
%TO.P,J3,5,Pin_5*%
%TO.N,/B2*%
X102067880Y-124448943D03*
%TO.P,J3,6,Pin_6*%
%TO.N,/A3*%
X102067880Y-126988943D03*
%TO.P,J3,7,Pin_7*%
%TO.N,/GREEN*%
X102067880Y-129528943D03*
%TO.P,J3,8,Pin_8*%
%TO.N,/YELLOW*%
X102067880Y-132068943D03*
%TO.P,J3,9,Pin_9*%
%TO.N,/B6*%
X102067880Y-134608943D03*
%TO.P,J3,10,Pin_10*%
%TO.N,unconnected-(J3-Pin_10-Pad10)*%
X102067880Y-137148943D03*
%TO.P,J3,11,Pin_11*%
%TO.N,+3.3V*%
X102067880Y-139688943D03*
%TO.P,J3,12,Pin_12*%
%TO.N,GND*%
X102067880Y-142228943D03*
%TD*%
D16*
%TO.P,U2,1,VO*%
%TO.N,+3.3V*%
X142240000Y-104140000D03*
D17*
%TO.P,U2,2,GND*%
%TO.N,GND*%
X143510000Y-104140000D03*
%TO.P,U2,3,VI*%
%TO.N,/Vin*%
X144780000Y-104140000D03*
%TD*%
D10*
%TO.P,C6,1*%
%TO.N,Net-(U1-Vcap)*%
X134185814Y-132000000D03*
%TO.P,C6,2*%
%TO.N,GND*%
X134185814Y-127000000D03*
%TD*%
%TO.P,C3,1*%
%TO.N,+3.3V*%
X106680000Y-134620000D03*
%TO.P,C3,2*%
%TO.N,GND*%
X111680000Y-134620000D03*
%TD*%
D14*
%TO.P,S3,1*%
%TO.N,GND*%
X107581274Y-141722258D03*
D15*
%TO.P,S3,2*%
%TO.N,/USER*%
X107581274Y-146802258D03*
%TD*%
D14*
%TO.P,S2,1*%
%TO.N,GND*%
X112364140Y-141572794D03*
D15*
%TO.P,S2,2*%
%TO.N,/MCLR*%
X112364140Y-146652794D03*
%TD*%
D18*
%TO.P,U1,1,~{MCLR}*%
%TO.N,/MCLR*%
X121920000Y-111760000D03*
D11*
%TO.P,U1,2,A0*%
%TO.N,/A0*%
X121920000Y-114300000D03*
%TO.P,U1,3,A1*%
%TO.N,/A1*%
X121920000Y-116840000D03*
%TO.P,U1,4,B0*%
%TO.N,/B0*%
X121920000Y-119380000D03*
%TO.P,U1,5,B1*%
%TO.N,/B1*%
X121920000Y-121920000D03*
%TO.P,U1,6,B2*%
%TO.N,/B2*%
X121920000Y-124460000D03*
%TO.P,U1,7,B3*%
%TO.N,/U1TX*%
X121920000Y-127000000D03*
%TO.P,U1,8,Vss*%
%TO.N,GND*%
X121920000Y-129540000D03*
%TO.P,U1,9,A2*%
%TO.N,/U1RX*%
X121920000Y-132080000D03*
%TO.P,U1,10,A3*%
%TO.N,/A3*%
X121920000Y-134620000D03*
%TO.P,U1,11,B4*%
%TO.N,/GREEN*%
X121920000Y-137160000D03*
%TO.P,U1,12,A4*%
%TO.N,/USER*%
X121920000Y-139700000D03*
%TO.P,U1,13,Vdd*%
%TO.N,+3.3V*%
X121920000Y-142240000D03*
%TO.P,U1,14,B5*%
%TO.N,/YELLOW*%
X121920000Y-144780000D03*
%TO.P,U1,15,B6*%
%TO.N,/B6*%
X129540000Y-144780000D03*
%TO.P,U1,16,B7*%
%TO.N,/B7*%
X129540000Y-142240000D03*
%TO.P,U1,17,B8*%
%TO.N,/B8*%
X129540000Y-139700000D03*
%TO.P,U1,18,B9*%
%TO.N,/B9*%
X129540000Y-137160000D03*
%TO.P,U1,19,Vss*%
%TO.N,unconnected-(U1-Vss-Pad19)*%
X129540000Y-134620000D03*
%TO.P,U1,20,Vcap*%
%TO.N,Net-(U1-Vcap)*%
X129540000Y-132080000D03*
%TO.P,U1,21,B10*%
%TO.N,/B10*%
X129540000Y-129540000D03*
%TO.P,U1,22,B11*%
%TO.N,/B11*%
X129540000Y-127000000D03*
%TO.P,U1,23,B12*%
%TO.N,/B12*%
X129540000Y-124460000D03*
%TO.P,U1,24,B13*%
%TO.N,/B13*%
X129540000Y-121920000D03*
%TO.P,U1,25,B14*%
%TO.N,/B14*%
X129540000Y-119380000D03*
%TO.P,U1,26,B15*%
%TO.N,/B15*%
X129540000Y-116840000D03*
%TO.P,U1,27,AVss*%
%TO.N,GND*%
X129540000Y-114300000D03*
%TO.P,U1,28,AVdd*%
%TO.N,+3.3V*%
X129540000Y-111760000D03*
%TD*%
D10*
%TO.P,R2,1*%
%TO.N,Net-(D2-K)*%
X144167113Y-119380000D03*
D11*
%TO.P,R2,2*%
%TO.N,GND*%
X144167113Y-127000000D03*
%TD*%
D10*
%TO.P,R5,1*%
%TO.N,Net-(D3-K)*%
X115493968Y-120809705D03*
D11*
%TO.P,R5,2*%
%TO.N,/YELLOW*%
X107873968Y-120809705D03*
%TD*%
D14*
%TO.P,J1,1,Pin_1*%
%TO.N,Net-(J1-Pin_1)*%
X101600000Y-104140000D03*
D15*
%TO.P,J1,2,Pin_2*%
%TO.N,GND*%
X104140000Y-104140000D03*
%TD*%
D10*
%TO.P,C1,1*%
%TO.N,/Vin*%
X114220000Y-109220000D03*
%TO.P,C1,2*%
%TO.N,GND*%
X109220000Y-109220000D03*
%TD*%
D12*
%TO.P,D2,1,K*%
%TO.N,Net-(D2-K)*%
X139700000Y-119380000D03*
D13*
%TO.P,D2,2,A*%
%TO.N,+3.3V*%
X139700000Y-116840000D03*
%TD*%
D14*
%TO.P,J2,1,Pin_1*%
%TO.N,unconnected-(J2-Pin_1-Pad1)*%
X110515000Y-104115000D03*
D15*
%TO.P,J2,2,Pin_2*%
%TO.N,/U1TX*%
X113055000Y-104115000D03*
%TO.P,J2,3,Pin_3*%
%TO.N,/U1RX*%
X115595000Y-104115000D03*
%TO.P,J2,4,Pin_4*%
%TO.N,+5V*%
X118135000Y-104115000D03*
%TO.P,J2,5,Pin_5*%
%TO.N,unconnected-(J2-Pin_5-Pad5)*%
X120675000Y-104115000D03*
%TO.P,J2,6,Pin_6*%
%TO.N,GND*%
X123215000Y-104115000D03*
%TD*%
D19*
%TO.P,S1,1*%
%TO.N,+5V*%
X129620000Y-104140000D03*
D20*
%TO.P,S1,2*%
%TO.N,/Vin*%
X132120000Y-104140000D03*
%TO.P,S1,3*%
%TO.N,Net-(J1-Pin_1)*%
X134620000Y-104140000D03*
%TD*%
D14*
%TO.P,J4,1,Pin_1*%
%TO.N,/B15*%
X147968821Y-114024231D03*
D15*
%TO.P,J4,2,Pin_2*%
%TO.N,/B14*%
X147968821Y-116564231D03*
%TO.P,J4,3,Pin_3*%
%TO.N,/B13*%
X147968821Y-119104231D03*
%TO.P,J4,4,Pin_4*%
%TO.N,/B12*%
X147968821Y-121644231D03*
%TO.P,J4,5,Pin_5*%
%TO.N,/B11*%
X147968821Y-124184231D03*
%TO.P,J4,6,Pin_6*%
%TO.N,/B10*%
X147968821Y-126724231D03*
%TO.P,J4,7,Pin_7*%
%TO.N,/B9*%
X147968821Y-129264231D03*
%TO.P,J4,8,Pin_8*%
%TO.N,/B8*%
X147968821Y-131804231D03*
%TO.P,J4,9,Pin_9*%
%TO.N,/B7*%
X147968821Y-134344231D03*
%TO.P,J4,10,Pin_10*%
%TO.N,unconnected-(J4-Pin_10-Pad10)*%
X147968821Y-136884231D03*
%TO.P,J4,11,Pin_11*%
%TO.N,+3.3V*%
X147968821Y-139424231D03*
%TO.P,J4,12,Pin_12*%
%TO.N,GND*%
X147968821Y-141964231D03*
%TD*%
D10*
%TO.P,C5,1*%
%TO.N,+3.3V*%
X142240000Y-139700000D03*
%TO.P,C5,2*%
%TO.N,GND*%
X142240000Y-142200000D03*
%TD*%
D12*
%TO.P,D1,1,K*%
%TO.N,Net-(D1-K)*%
X135806028Y-112020276D03*
D13*
%TO.P,D1,2,A*%
%TO.N,+3.3V*%
X133266028Y-112020276D03*
%TD*%
D10*
%TO.P,C2,1*%
%TO.N,+3.3V*%
X134620000Y-139700000D03*
%TO.P,C2,2*%
%TO.N,GND*%
X134620000Y-144700000D03*
%TD*%
D21*
%TO.N,/B13*%
X139700000Y-121920000D03*
X134620000Y-121920000D03*
%TO.N,/B10*%
X132080000Y-127000000D03*
X132080000Y-129540000D03*
%TO.N,/B9*%
X139700000Y-137160000D03*
X139700000Y-129540000D03*
%TO.N,/B8*%
X132080000Y-134620000D03*
X132080000Y-139700000D03*
%TO.N,/B7*%
X132080000Y-147320000D03*
X144780000Y-134620000D03*
X132080000Y-142240000D03*
X144780000Y-147320000D03*
%TO.N,/YELLOW*%
X119380000Y-144780000D03*
X118655500Y-133079503D03*
X105557678Y-132092474D03*
X105555000Y-132089796D03*
%TO.N,/B6*%
X106324396Y-147524279D03*
X106680000Y-137160000D03*
%TO.N,+3.3V*%
X104140000Y-144780000D03*
X104140000Y-139700000D03*
X104140000Y-139700000D03*
X104140000Y-139700000D03*
X104140000Y-139700000D03*
%TO.N,/MCLR*%
X115504107Y-111842938D03*
%TO.N,/U1RX*%
X118655500Y-132080000D03*
%TO.N,/U1TX*%
X114300000Y-127000000D03*
%TO.N,/B14*%
X137160000Y-119380000D03*
X137160000Y-114748731D03*
%TO.N,/B15*%
X132080000Y-116840000D03*
X132080000Y-114300000D03*
D22*
%TO.N,Net-(D1-K)*%
X135862086Y-116820418D03*
D21*
%TO.N,/A3*%
X113079503Y-134620000D03*
X111760000Y-127000000D03*
D22*
%TO.N,/YELLOW*%
X105557678Y-132092474D03*
X105637131Y-120730700D03*
%TO.N,+3.3V*%
X104445336Y-115566257D03*
D21*
%TO.N,Net-(D3-K)*%
X137160000Y-121920000D03*
X137160000Y-132080000D03*
%TO.N,+3.3V*%
X142240000Y-116840000D03*
%TO.N,/MCLR*%
X116840000Y-147320000D03*
%TO.N,+3.3V*%
X104140000Y-129540000D03*
%TO.N,/GREEN*%
X119380000Y-127000000D03*
X119380000Y-137160000D03*
%TO.N,/USER*%
X109220000Y-147320000D03*
X109220000Y-139700000D03*
X116840000Y-139700000D03*
X116840000Y-129540000D03*
%TO.N,+3.3V*%
X104140000Y-134620000D03*
X104140000Y-139700000D03*
%TD*%
D23*
%TO.N,/B13*%
X129540000Y-121920000D02*
X134620000Y-121920000D01*
X139700000Y-121920000D02*
X145153052Y-121920000D01*
X145153052Y-121920000D02*
X147968821Y-119104231D01*
%TO.N,/B12*%
X147968821Y-121644231D02*
X146968052Y-122645000D01*
X146968052Y-122645000D02*
X131355000Y-122645000D01*
X131355000Y-122645000D02*
X129540000Y-124460000D01*
%TO.N,/B11*%
X129540000Y-127000000D02*
X130339999Y-126200001D01*
X130339999Y-126200001D02*
X133394822Y-126200001D01*
X133394822Y-126200001D02*
X133719823Y-125875000D01*
X133719823Y-125875000D02*
X146278052Y-125875000D01*
X146278052Y-125875000D02*
X147968821Y-124184231D01*
%TO.N,/B10*%
X133205000Y-128125000D02*
X146568052Y-128125000D01*
X129540000Y-129540000D02*
X132080000Y-129540000D01*
X132080000Y-127000000D02*
X133205000Y-128125000D01*
X146568052Y-128125000D02*
X147968821Y-126724231D01*
%TO.N,/B9*%
X129540000Y-137160000D02*
X139700000Y-137160000D01*
X139975769Y-129264231D02*
X147968821Y-129264231D01*
X139700000Y-129540000D02*
X139975769Y-129264231D01*
%TO.N,/B8*%
X129540000Y-139700000D02*
X132080000Y-139700000D01*
X133305000Y-133395000D02*
X146378052Y-133395000D01*
X132080000Y-134620000D02*
X133305000Y-133395000D01*
X146378052Y-133395000D02*
X147968821Y-131804231D01*
%TO.N,/GREEN*%
X102067880Y-129528943D02*
X103203937Y-130665000D01*
X103203937Y-130665000D02*
X109609695Y-130665000D01*
X109609695Y-130665000D02*
X113999695Y-126275000D01*
X113999695Y-126275000D02*
X118655000Y-126275000D01*
X118655000Y-126275000D02*
X119380000Y-127000000D01*
%TO.N,/B7*%
X129540000Y-142240000D02*
X132080000Y-142240000D01*
X144780000Y-134620000D02*
X145055769Y-134344231D01*
X132080000Y-147320000D02*
X144780000Y-147320000D01*
X145055769Y-134344231D02*
X147968821Y-134344231D01*
%TO.N,+3.3V*%
X121920000Y-142240000D02*
X123045000Y-141115000D01*
X123045000Y-141115000D02*
X133205000Y-141115000D01*
X133205000Y-141115000D02*
X134620000Y-139700000D01*
X121920000Y-142240000D02*
X120100783Y-142240000D01*
X120100783Y-142240000D02*
X117520667Y-144820116D01*
%TO.N,/YELLOW*%
X102067880Y-132068943D02*
X103078440Y-133079503D01*
X103078440Y-133079503D02*
X118655500Y-133079503D01*
X119380000Y-144780000D02*
X121920000Y-144780000D01*
X102067880Y-132068943D02*
X105534147Y-132068943D01*
X105534147Y-132068943D02*
X105557678Y-132092474D01*
X105534147Y-132068943D02*
X105555000Y-132089796D01*
%TO.N,/B6*%
X106324396Y-147524279D02*
X106845117Y-148045000D01*
X102067880Y-134608943D02*
X104618937Y-137160000D01*
X126275000Y-148045000D02*
X129540000Y-144780000D01*
X104618937Y-137160000D02*
X106680000Y-137160000D01*
X106845117Y-148045000D02*
X126275000Y-148045000D01*
%TO.N,+3.3V*%
X104140000Y-144780000D02*
X104180116Y-144820116D01*
X104180116Y-144820116D02*
X117520667Y-144820116D01*
X102067880Y-139688943D02*
X104128943Y-139688943D01*
X104128943Y-139688943D02*
X104140000Y-139700000D01*
%TO.N,/MCLR*%
X115587045Y-111760000D02*
X121920000Y-111760000D01*
X115504107Y-111842938D02*
X115587045Y-111760000D01*
%TO.N,+5V*%
X129620000Y-104140000D02*
X128470000Y-105290000D01*
X128470000Y-105290000D02*
X119310000Y-105290000D01*
X119310000Y-105290000D02*
X118135000Y-104115000D01*
%TO.N,/U1RX*%
X118655500Y-132080000D02*
X121920000Y-132080000D01*
%TO.N,/U1TX*%
X115425000Y-128125000D02*
X120795000Y-128125000D01*
X120795000Y-128125000D02*
X121920000Y-127000000D01*
X114300000Y-127000000D02*
X115425000Y-128125000D01*
%TO.N,/B14*%
X137160000Y-119380000D02*
X129540000Y-119380000D01*
X147968821Y-116564231D02*
X146153321Y-114748731D01*
X146153321Y-114748731D02*
X137160000Y-114748731D01*
%TO.N,/B15*%
X147968821Y-114024231D02*
X132355769Y-114024231D01*
X132355769Y-114024231D02*
X132080000Y-114300000D01*
X132080000Y-116840000D02*
X129540000Y-116840000D01*
%TO.N,Net-(D1-K)*%
X135842504Y-116840000D02*
X135862086Y-116820418D01*
X134081755Y-116840000D02*
X135842504Y-116840000D01*
%TO.N,/A3*%
X113079503Y-134620000D02*
X121920000Y-134620000D01*
X102067880Y-126988943D02*
X111748943Y-126988943D01*
X111748943Y-126988943D02*
X111760000Y-127000000D01*
%TO.N,/YELLOW*%
X107873968Y-120809705D02*
X105716136Y-120809705D01*
X105716136Y-120809705D02*
X105637131Y-120730700D01*
%TO.N,+3.3V*%
X104470553Y-115591474D02*
X104445336Y-115566257D01*
X107882239Y-115591474D02*
X104470553Y-115591474D01*
%TO.N,Net-(D3-K)*%
X137160000Y-121920000D02*
X136035000Y-120795000D01*
X136035000Y-120795000D02*
X115508673Y-120795000D01*
X115508673Y-120795000D02*
X115493968Y-120809705D01*
X142240000Y-132080000D02*
X137160000Y-132080000D01*
%TO.N,+3.3V*%
X139700000Y-116840000D02*
X142240000Y-116840000D01*
%TO.N,/MCLR*%
X116172794Y-146652794D02*
X116840000Y-147320000D01*
X112364140Y-146652794D02*
X116172794Y-146652794D01*
%TO.N,+3.3V*%
X106680000Y-129540000D02*
X104140000Y-129540000D01*
%TO.N,/GREEN*%
X121920000Y-137160000D02*
X119380000Y-137160000D01*
X134081755Y-124460000D02*
X132956755Y-125585000D01*
X132956755Y-125585000D02*
X120795000Y-125585000D01*
X120795000Y-125585000D02*
X119380000Y-127000000D01*
%TO.N,Net-(D2-K)*%
X139700000Y-119380000D02*
X144167113Y-119380000D01*
%TO.N,/USER*%
X109220000Y-139700000D02*
X116840000Y-139700000D01*
X107581274Y-146802258D02*
X108702258Y-146802258D01*
X108702258Y-146802258D02*
X109220000Y-147320000D01*
X114300000Y-129540000D02*
X116840000Y-129540000D01*
X116840000Y-139700000D02*
X121920000Y-139700000D01*
%TO.N,+3.3V*%
X106680000Y-134620000D02*
X104140000Y-134620000D01*
X142240000Y-139700000D02*
X142240000Y-134620000D01*
X142240000Y-139700000D02*
X147693052Y-139700000D01*
X147693052Y-139700000D02*
X147968821Y-139424231D01*
X134620000Y-139700000D02*
X142240000Y-139700000D01*
%TO.N,Net-(U1-Vcap)*%
X134185814Y-132000000D02*
X129620000Y-132000000D01*
X129620000Y-132000000D02*
X129540000Y-132080000D01*
%TO.N,+3.3V*%
X133266028Y-112020276D02*
X129800276Y-112020276D01*
X129800276Y-112020276D02*
X129540000Y-111760000D01*
%TO.N,/Vin*%
X144780000Y-104140000D02*
X144780000Y-109220000D01*
X144780000Y-109220000D02*
X132160000Y-109220000D01*
X132160000Y-109220000D02*
X132120000Y-109180000D01*
X114220000Y-109220000D02*
X132080000Y-109220000D01*
X132080000Y-109220000D02*
X132120000Y-109180000D01*
X132120000Y-109180000D02*
X132120000Y-104140000D01*
%TO.N,Net-(J1-Pin_1)*%
X101600000Y-101600000D02*
X134620000Y-101600000D01*
X101600000Y-104140000D02*
X101600000Y-101600000D01*
X134620000Y-101600000D02*
X134620000Y-104140000D01*
%TO.N,/A0*%
X121920000Y-114300000D02*
X102078937Y-114300000D01*
X102078937Y-114300000D02*
X102067880Y-114288943D01*
%TO.N,/A1*%
X121920000Y-116840000D02*
X102078937Y-116840000D01*
X102078937Y-116840000D02*
X102067880Y-116828943D01*
%TO.N,/B0*%
X121920000Y-119380000D02*
X102078937Y-119380000D01*
X102078937Y-119380000D02*
X102067880Y-119368943D01*
%TO.N,/B1*%
X121120001Y-122719999D02*
X102878936Y-122719999D01*
X121920000Y-121920000D02*
X121120001Y-122719999D01*
X102878936Y-122719999D02*
X102067880Y-121908943D01*
%TO.N,/B2*%
X102078937Y-124460000D02*
X102067880Y-124448943D01*
X121920000Y-124460000D02*
X102078937Y-124460000D01*
%TD*%
M02*
